<svg xmlns="http://www.w3.org/2000/svg" version="1.1" xmlns:xlink="http://www.w3.org/1999/xlink" xmlns:svgjs="http://svgjs.dev/svgjs" width="1440" height="2000" preserveAspectRatio="none" viewBox="0 0 1440 2000"><g mask="url(&quot;#SvgjsMask1032&quot;)" fill="none"><rect width="1440" height="2000" x="0" y="0" fill="#0e2a47"></rect><circle r="17.695" cx="1233.165" cy="309.245" filter="url(#SvgjsFilter1033)" fill="rgba(51, 121, 194, 0.58)"></circle><circle r="22.785" cx="102.99499999999999" cy="1136.605" filter="url(#SvgjsFilter1033)" fill="rgba(51, 121, 194, 0.58)"></circle><circle r="23.185" cx="1297.0349999999999" cy="1656.485" filter="url(#SvgjsFilter1033)" fill="rgba(51, 121, 194, 0.58)"></circle><circle r="18.97" cx="226.05" cy="549.8100000000001" filter="url(#SvgjsFilter1033)" fill="rgba(51, 121, 194, 0.58)"></circle><circle r="16.465" cx="246.855" cy="1763.5549999999998" filter="url(#SvgjsFilter1033)" fill="rgba(51, 121, 194, 0.58)"></circle><circle r="14.04" cx="1274.46" cy="603.27" filter="url(#SvgjsFilter1033)" fill="rgba(51, 121, 194, 0.58)"></circle><circle r="14.63" cx="1427.73" cy="501.62" filter="url(#SvgjsFilter1033)" fill="rgba(51, 121, 194, 0.58)"></circle><circle r="22.99" cx="895.28" cy="1771.94" filter="url(#SvgjsFilter1033)" fill="rgba(51, 121, 194, 0.58)"></circle><circle r="18.31" cx="748.9699999999999" cy="1522.76" filter="url(#SvgjsFilter1033)" fill="rgba(51, 121, 194, 0.58)"></circle><circle r="17.275" cx="110.845" cy="99.125" filter="url(#SvgjsFilter1033)" fill="rgba(51, 121, 194, 0.58)"></circle><circle r="13.86" cx="997.23" cy="754.99" filter="url(#SvgjsFilter1033)" fill="rgba(51, 121, 194, 0.58)"></circle><circle r="12.845" cx="594.455" cy="1972.155" filter="url(#SvgjsFilter1033)" fill="rgba(51, 121, 194, 0.58)"></circle><circle r="22.56" cx="981.3399999999999" cy="1834.51" filter="url(#SvgjsFilter1033)" fill="rgba(51, 121, 194, 0.58)"></circle><circle r="18.965" cx="501.025" cy="883.2950000000001" filter="url(#SvgjsFilter1033)" fill="rgba(51, 121, 194, 0.58)"></circle><circle r="15.78" cx="219.6" cy="246.27" filter="url(#SvgjsFilter1033)" fill="rgba(51, 121, 194, 0.58)"></circle><circle r="17.54" cx="397.92" cy="550.63" filter="url(#SvgjsFilter1033)" fill="rgba(51, 121, 194, 0.58)"></circle><circle r="22.81" cx="1409.07" cy="1507.81" filter="url(#SvgjsFilter1033)" fill="rgba(51, 121, 194, 0.58)"></circle><circle r="18.45" cx="787.36" cy="824.73" filter="url(#SvgjsFilter1033)" fill="rgba(51, 121, 194, 0.58)"></circle><circle r="16.915" cx="592.6949999999999" cy="1423.835" filter="url(#SvgjsFilter1033)" fill="rgba(51, 121, 194, 0.58)"></circle><circle r="16.175" cx="718.405" cy="1709.645" filter="url(#SvgjsFilter1033)" fill="rgba(51, 121, 194, 0.58)"></circle><path d="M247.2 906.5L291.4 847.8 311.4 844.4 339.5 880 332.2 899.4 264.3 928.1C263.6 928.7 263.6 928.7 262.9 929.2 261.5 930.3 260.7 932.1 261.6 934.8 263.3 936.9 265.1 937.7 267.7 936.7L327 911.4 315.3 941.1 289.3 952.6C289.3 952.6 288.6 953.1 288.6 953.1 287.2 954.2 286.3 956 287.3 958.7 287.7 960.6 290.7 961.6 293.4 960.6L310.6 953.8 301.8 975.5C300.9 977.3 301.9 980 304.2 981.5S309.4 980.9 310.9 978.5L319.1 957.3 326.6 974C327.6 976.7 330.6 977.7 333.3 976.7 334.7 975.6 336.2 973.2 335.3 970.6L323.7 944.6 336.1 914.4 361.5 973.7C362.4 976.3 365.5 977.3 367.4 976.9 369.5 975.3 371.1 972.9 370.1 970.3L340.7 902.9 348.7 882.9 392.4 876.7 405.7 893.4 397.7 966.5C397.5 969 399.1 971.1 401.6 971.4S406.2 970.1 406.5 967.6L413.4 903.2 433.8 929 430.6 956.5C430.3 959 431.9 961 435 962S439.6 960.7 439.9 958.2L441.5 938.8 456.4 957.6C458 959.7 461.2 959.4 463.3 957.8 465.4 956.1 465.7 953.6 464.1 951.5L449.2 932.7 467.9 934.9C470.9 935.9 473 934.2 472.8 931 473.1 928.5 471.4 926.4 468.9 926.1L441.5 922.9 421.1 897.1 485.3 905.3C487.8 905.6 490.6 903.4 490.9 900.9S489.5 896.3 487 896L413.3 887.4 400.1 870.6 417 828.9 437.6 826.3 496.3 870.5C498.7 872 501.3 871.1 503.4 869.4 505 867.1 504 864.4 502.3 862.3L450.5 824 482.1 819.5 504.7 836.7C507.1 838.2 509.7 837.3 511.8 835.6 512.6 833.8 512.4 830.6 510 829.1L495.5 817.9 518.7 814.3C520.7 813.9 522.2 811.5 522.5 809 521.6 806.4 519.2 804.8 517.3 805.2L494.1 808.8 505.4 793.1C506.2 791.3 506 788.1 504.2 787.2 502.5 785.2 500.6 785.6 498.5 787.2 498.5 787.2 497.8 787.8 497.8 787.8L480.6 810.4 449 815 487.4 763.1C488.9 760.8 489.2 758.3 486.9 756.7 484.5 755.2 482.6 755.6 481.2 756.7 480.5 757.3 480.5 757.3 480.5 757.3L436.1 817.2 415.6 819.9 387.4 784.3 395.3 765.6 463.4 735.6C465.3 735.2 466.3 732.2 465.9 730.2 465 727.6 461.9 726.6 459.3 727.6L400 752.9 411.7 723.3 437.7 711.8C440.4 710.8 441.9 708.4 440.2 706.4 439.3 703.7 436.2 702.7 434.3 703.1L416.9 711.2 425.8 689.5C426.1 687 425.1 684.3 422.8 682.8 421.5 682.6 419.6 683 418.2 684.1 417.5 684.7 417.5 684.7 417.3 685.9L408.4 707.7 400.4 690.3C399.4 687.6 396.9 687.4 395 687.8 394.3 688.3 394.3 688.3 393.6 688.9 392.2 690 391.3 691.8 391.7 693.7L403.2 719.7 391.5 749.4 366.2 690.1C364.6 688 362.2 686.5 360.1 688.1 358.9 688 358.9 688 358.2 688.5 356.8 689.6 356.5 692.1 356.9 694.1L386.9 762.1 379 780.8 334.5 787.6 321.9 771.6 330.5 697.9C330.8 695.4 328.6 692.6 326.1 692.3S320.8 694.3 320.5 696.8L313.6 761.1 293.7 736 296.4 707.9C296.7 705.4 295.1 703.3 292.6 703 290.1 702.7 288 704.3 287.7 706.8L285.5 725.6 270.6 706.7C269.5 705.3 266.4 704.3 264.4 706 262.3 707.7 261.8 711.4 262.9 712.8L277.8 731.6 259.1 729.4C257.8 729.3 256.6 729.1 255.9 729.7 254.5 730.8 254.3 732 254.2 733.3 253.9 735.8 255.6 737.9 258.1 738.2L286.1 742.1 305.9 767.2 241.7 759C240.4 758.9 239.7 759.4 238.3 760.5 237.7 761.1 237 761.6 236.8 762.9 236.5 765.4 238.7 768.2 241.2 768.5L314.2 777.7 326.9 793.7 310.7 834.8 289.9 838.7 230.7 793.8C228.9 793 226.4 792.7 225 793.8 224.3 794.3 224.3 794.3 224.8 795 222.7 796.7 223 799.9 225.3 801.4L277.2 839.8 244.9 844.9 222.3 827.6C220.5 826.8 218.5 827.2 217.1 828.3 217.1 828.3 216.4 828.9 216.4 828.9 214.3 830.5 214.6 833.7 216.9 835.2L232.7 846.6 209.5 850.2C208.2 850 207.6 850.6 206.9 851.1 205.5 852.3 204.6 854.1 205.2 854.7 205.4 857.9 207.8 859.5 210.3 859.8L233.5 856.2 222.3 870.7C220.7 873 221 876.2 223.4 877.8 225.2 878.6 228.3 878.3 229.2 876.5L246.4 853.9 277.9 849.3 239.6 901.2C238.1 903.5 239 906.2 240.7 908.3 242.5 909.1 245.7 908.9 247.2 906.5ZM343.9 869.7L322.4 842.5 319.1 838.3 320.9 833.5 333.5 802.1 336 796.7 341.1 796 374.6 791.1 379.8 790.4 383.1 794.6 404.6 821.8 407.9 826 406 830.8 393.5 862.3 391.7 867.1 385.8 868.3 352.3 873.3 347.2 873.9 343.9 869.7Z" fill="rgba(51, 121, 194, 0.58)"></path><path d="M1235.7 1171.8L1232.5 1098.1 1277.2 1050 1296.6 1112.8 1261.7 1177.8C1261.7 1177.8 1261.5 1178.6 1261.5 1178.6 1261.1 1180.4 1262.5 1182.5 1264 1183.8 1266.4 1185.2 1269.4 1184.1 1270 1181.5L1300.3 1124.6 1309.8 1155 1296.7 1180.3C1296.7 1180.3 1296.5 1181.1 1296.5 1181.1 1296.1 1182.9 1297.5 1185 1299 1186.3 1301.4 1187.7 1304.4 1186.6 1305 1184L1314.4 1167 1321.1 1189.5C1321.5 1191.4 1324.8 1193.1 1326.7 1192.6 1329.5 1192.3 1330.3 1188.9 1329.9 1186.9L1323.1 1164.4 1340.2 1173.8C1342.6 1175.2 1345.5 1174.1 1346.1 1171.5 1347.6 1169.1 1346.5 1166.1 1343.9 1165.5L1318.6 1152.4 1310 1122.2 1366.9 1152.5C1369.3 1154 1372.3 1152.8 1372.9 1150.3 1374.3 1147.8 1373.2 1144.9 1370.6 1144.3L1305.6 1109.4 1286.2 1046.6 1351.2 1061.4 1390.7 1124.2C1392 1126.4 1394.6 1126.9 1396.7 1125.6 1398.9 1124.3 1399.5 1121.7 1398.1 1119.5L1363.3 1064.2 1394.5 1071.3 1409.3 1094.7C1410.6 1096.9 1413.2 1097.5 1415.3 1096.1 1417.5 1094.8 1418 1092.2 1416.7 1090.1L1406.7 1074.1 1430.9 1079.6C1433.3 1081.1 1435.7 1078.9 1436.3 1076.3 1436.9 1073.7 1435.5 1071.6 1432.9 1071L1410.4 1065.8 1426.4 1055.8C1428.5 1054.4 1429.1 1051.8 1427.7 1049.7S1423.8 1047 1421.7 1048.3L1398.3 1063 1367.1 1055.9 1422.4 1021.1C1424.5 1019.8 1425.1 1017.2 1423.8 1015.1 1422.5 1013 1419.9 1012.4 1417.7 1013.7L1354.9 1053.2 1290.8 1038.5 1335.5 990.4 1407.3 987.6C1410.1 987.3 1411.5 984.9 1412.1 982.3 1411.8 979.5 1409.4 978.1 1406.8 977.5L1342.4 980.1 1364.2 956.8 1392.6 956C1395.4 955.7 1396.9 953.3 1397.5 950.7 1397.2 947.9 1394.8 946.5 1393 946.1L1373.7 947.1 1389.5 929.7C1390.7 928.2 1391.5 924.7 1389.1 923.3 1386.7 921.8 1384.1 921.2 1382.7 923.6L1366.9 941 1365.8 921.6C1365.5 918.8 1363.1 917.4 1361.4 917 1359.5 917.4 1357.3 918.8 1356.9 920.5 1356.9 920.5 1356.7 921.4 1356.7 921.4L1357.5 949.8 1335.8 973.1 1333.2 908.7C1332.9 905.9 1330.5 904.4 1328.8 904 1326.9 904.5 1324.7 905.8 1324.3 907.6 1324.3 907.6 1324.1 908.4 1324.1 908.4L1327.4 982.1 1282.6 1030.3 1263.2 967.5 1298.1 902.5C1299.6 900.1 1298.5 897.1 1295.9 896.5 1293.5 895.1 1290.5 896.2 1289.9 898.8L1259.6 955.7 1250.1 925.3 1263.2 900C1264.6 897.6 1263.5 894.6 1260.9 894 1258.5 892.5 1255.5 893.7 1254.9 896.3L1245.5 913.3 1238.8 890.8C1238.3 888.9 1235.1 887.2 1233.1 887.7 1231.2 888.1 1230 889.7 1229.6 891.4 1229.4 892.3 1229.2 893.1 1229.8 894.2L1236.5 916.7 1219.5 907.4C1217.1 905.9 1214.1 907 1213.5 909.6 1213.5 909.6 1213.3 910.5 1213.3 910.5 1212.9 912.2 1214.3 914.4 1215.8 915.6L1241.1 928.7 1250.6 959.1 1193.7 928.8C1191.3 927.3 1188.3 928.5 1187.7 931.1 1187.7 931.1 1187.5 932 1187.5 932 1187.1 933.7 1188.4 935.8 1190 937.1L1254.9 972 1274.3 1034.8 1210.2 1020.1 1170.7 957.3C1169.4 955.2 1166.8 954.6 1164.7 955.9 1162.6 957.3 1162 959.9 1163.3 962L1197.2 1017.1 1166 1010 1151.3 986.6C1150 984.5 1147.4 983.9 1145.2 985.2S1142.5 989.2 1143.8 991.3L1153.9 1007.3 1131.3 1002.1C1128.7 1001.5 1126.6 1002.9 1126 1005.5 1125.4 1008.1 1126.8 1010.2 1129.4 1010.8L1151.9 1015.9 1135.9 1026C1134.9 1026.6 1133.8 1027.3 1133.4 1029S1133.7 1031.8 1134.3 1032.9C1135.7 1035 1138.3 1035.6 1140.4 1034.3L1163.8 1019.6 1195 1026.7 1139.7 1061.5C1138.6 1062.1 1137.5 1062.8 1137.2 1064.5 1137 1065.4 1137.4 1067.3 1138.1 1068.4 1139.4 1070.5 1142 1071.1 1144.2 1069.8L1207 1030.3 1271.1 1045 1226.4 1093.1 1152.7 1096.3C1150.8 1096.8 1148.6 1098.1 1148.2 1099.9 1148.2 1099.9 1148 1100.7 1148 1100.7 1148.3 1103.5 1150.7 1105 1152.4 1105.4L1216.9 1102.8 1195.1 1126.1 1166.7 1126.9C1164.8 1127.4 1162.6 1128.7 1162.2 1130.4 1162.2 1130.4 1162 1131.3 1162 1131.3 1162.3 1134.1 1164.7 1135.5 1166.4 1135.9L1185.8 1134.9 1170 1152.3C1169.8 1153.1 1168.7 1153.8 1168.5 1154.7 1168.2 1156.4 1168.6 1158.3 1170.2 1159.6 1172.6 1161 1175.2 1161.6 1176.6 1159.2L1192.4 1141.9 1193.5 1161.3C1193.8 1164.1 1196.2 1165.5 1197.9 1165.9 1200.7 1165.6 1202.1 1163.2 1202.5 1161.5L1201.7 1133.1 1223.5 1109.8 1226.1 1174.2C1226.4 1177 1228.8 1178.4 1230.5 1178.8 1233.7 1176.8 1236 1174.6 1235.7 1171.8Z" fill="rgba(51, 121, 194, 0.58)"></path><path d="M901.3 444.1L831.2 433.2 816.4 411.9 840 415.7C842.4 416.8 844.3 414.7 845.4 412.3 845.3 410.3 843.6 407.6 841.6 407.7L809.2 401.9 794 381.4 819.3 379.2 844.9 400.4C844.9 400.4 845.7 400.7 845.7 400.7 847.3 401.4 849.7 400.6 851.2 399.3 852.3 396.9 852.2 394.9 850.2 393L831.6 377.8 857 375.6 912.2 419.8C912.2 419.8 912.6 420.9 912.6 420.9 914.3 421.7 916.6 420.8 918.1 419.5 920 417.4 919.5 414.3 917.1 413.2L869.3 374.3 900.1 370.5 921.6 387.9C921.6 387.9 921.6 387.9 922.4 388.3 924 389 926 388.9 927.5 387.7 928.6 385.2 928.9 382.4 926.8 380.5L912.4 369.2 935 366.7C937.8 366.9 938.9 364.5 938.8 362.5 939.1 359.7 937 357.8 933.8 358.4L911.6 360.1 923.4 346.9C924.5 344.4 924.8 341.6 922.3 340.6 920.3 338.7 918.3 338.7 916.4 340.8L899 362.2 868.5 365.1 907.8 316.5C909.3 315.2 908.8 312.1 906.7 310.2 905.1 309.5 902.3 309.2 900.4 311.2L856.2 366.5 830.8 368.7 845.9 350.2C847.8 348.1 847 345.8 844.9 343.9 843.6 342.3 840.5 342.9 838.9 344.1L818.5 370.1 792.8 373.1 803.3 349.6 833.9 338C836.2 337.1 837.3 334.6 836.4 332.3 836.3 330.3 833.1 328.8 830.7 329.7L808.4 338.3 819 314.7 885.6 290C887.9 289.1 889 286.7 888.1 284.3 887.2 282 884.8 280.9 882.4 281.8L824.1 303.4 836.4 275.8 862.2 265.9C864.6 265 865.7 262.6 864.8 260.2 863.9 257.9 861.5 256.8 859.1 257.7L841.9 263.6 850.9 243.3C852 240.9 851.1 238.6 848.7 237.5 846.3 236.4 843.9 237.3 842.8 239.7L833.7 260 827.5 243.5C826.6 241.2 824.1 240.1 821.8 241S818.3 244.3 819.2 246.7L828.7 271.3 815.9 299.7 794 242.2C793.1 239.8 790.7 238.7 788.3 239.6 786 240.5 784.9 243 785.8 245.3L810.9 311.1 800.3 334.6 791.8 312.3C790.9 310 788.5 308.9 786.1 309.8 783.8 310.7 782.7 313.1 783.6 315.4L795.2 346 785.1 368.7 770.7 348.6 775.6 315.8C775.6 313.8 773.9 311.1 771.9 311.2 769.1 310.9 767.5 312.1 766.4 314.6L762.7 338.2 748.3 318.1 759.2 248C759.5 245.2 758.2 243.7 755.8 242.6 753 242.3 751.1 244.4 750.4 246L740.3 307.7 722.5 282.2 726.5 255.8C727.6 253.4 725.5 251.5 723.1 250.4 721.1 250.5 718.4 252.2 718.1 255L715.3 272.2 701.8 254.5C700.9 252.1 698.1 251.8 695.4 253.6 693.9 254.8 693.6 257.6 694.8 259.2L708 277.7 689.9 274.5C687.1 274.2 685.2 276.3 685.3 278.3 684.2 280.7 685.5 282.2 687.1 283 687.9 283.3 687.9 283.3 688.7 283.7L715.2 287.7 733 313.2 672.1 303.5C669.6 302.4 667.7 304.5 666.6 306.9 666.7 308.9 668 310.4 669.6 311.2 670.4 311.5 670.4 311.5 670.4 311.5L741 323.6 755.3 343.7 731.7 339.9C728.9 339.7 727.4 340.9 726.3 343.4 726.4 345.3 727.3 347.7 728.9 348.4 729.7 348.8 729.7 348.8 730.5 349.1L763.4 354.1 777.7 374.2 753.2 376.8 727.2 356.4C725.2 354.5 722 355.1 720.5 356.3 719.4 358.8 719.1 361.6 721.5 362.7L740.1 377.8 715.2 381.2 659.5 335.9C658.3 334.3 655.1 334.9 653.6 336.1 652.5 338.5 652.2 341.3 654.3 343.2L702.1 382.2 671.6 385.1 650.9 368.1C648.9 366.2 645.7 366.7 644.6 369.1 643.1 370.4 642.8 373.2 644.9 375.1L659.3 386.4 636.7 389C634.7 389 632.8 391.1 632.6 393.9 633 395.1 634.3 396.6 635.9 397.3 635.9 397.3 636.7 397.7 637.5 398.1L660.1 395.5 648.8 409.9C647.2 411.2 647.8 414.3 649 415.9 649.8 416.2 649.8 416.2 649.8 416.2 652.3 417.3 654.6 416.4 655.3 414.8L672.4 394.2 703.2 390.5 663.9 439.1C662.8 441.6 662.9 443.5 665 445.4 665 445.4 665.8 445.8 665.8 445.8 667.4 446.5 669.4 446.4 671.3 444.4L716.3 389.5 740.9 386.9 725.8 405.4C724.7 407.9 724.4 410.7 726.8 411.8 726.5 412.6 727.3 412.9 727.3 412.9 728.9 413.7 731.2 412.8 732.8 411.5L753.2 385.6 778.5 383.3 768.4 406 737.8 417.7C735.5 418.6 734 421.8 734.9 424.2 736.2 425.7 738.6 426.8 740.6 426.7L763.3 417.4 752.7 440.9 687 466C684.6 466.9 683.5 469.3 684.4 471.7 685.3 474 687.7 475.1 690.1 474.2L747.7 452.3 734.9 480.7 710.3 490.1C707.9 491 706.8 493.4 707.7 495.7S711.1 499.2 713.4 498.3L729.9 492 720.8 512.3C719.7 514.7 720.6 517.1 723 518.2 725.4 519.3 727.8 518.4 728.9 515.9L738 495.6 745 512.4C745.5 513.6 745.9 514.8 746.8 515.2 747.6 515.5 749.6 515.4 750.7 515 753.1 514.1 754.2 511.7 753.3 509.3L743 484.3 755.8 455.9 778.5 513.8C779 515 779.4 516.2 780.2 516.5 781 516.9 783 516.8 784.2 516.3 786.6 515.5 787.6 513 786.8 510.7L760.8 444.5 771.4 421 779.5 444.1C780 445.3 781.6 446 782.4 446.4 783.2 446.8 784 447.1 785.2 446.7 787.6 445.8 789 442.5 787.8 441L776.5 409.6 786.6 386.9 801.8 407.4 796.1 439.8C796.1 441.8 797 444.2 798.7 444.9 799.5 445.3 799.5 445.3 799.8 444.5 802.3 445.5 805 443.8 805.3 441L809 417.4 824.2 437.8 812.1 508.4C812.2 510.4 813.5 511.9 815.1 512.6 815.9 513 815.9 513 815.9 513 818.7 513.3 821 512.4 821.3 509.6L831.4 447.9 849.2 473.4 845.2 499.8C844.9 502.6 846.2 504.2 847.8 504.9 847.8 504.9 848.6 505.2 848.6 505.2 851.4 505.5 853.3 503.5 854 501.8L856.4 483.4 869.5 502C870.3 502.3 871.2 502.7 872 503.1 872.8 503.4 874.8 503.3 875.9 502.9 877.8 500.8 878.9 498.4 876.9 496.5L863.7 477.9 881.8 481.1C884.6 481.4 886.5 479.4 887.2 477.7 887.5 474.9 885.4 473 883 471.9L856.5 467.9 838.4 443.2 899.3 452.9C902.1 453.2 904.8 451.5 904.7 449.5 905 446.7 904.1 444.4 901.3 444.1Z" fill="rgba(51, 121, 194, 0.58)"></path><path d="M773.7 1451.5L752.8 1522.2 694.8 1553.2 696.9 1487.5 751 1437.5C751 1437.5 751.5 1436.7 751.5 1436.7 752.5 1435.2 751.9 1432.7 750.8 1431 749 1428.9 745.8 1429 744.4 1431.2L697.2 1475.2 698.2 1443.3 718.8 1423.7C718.8 1423.7 719.3 1422.9 719.3 1422.9 720.2 1421.4 719.6 1419 718.6 1417.3 716.8 1415.1 713.6 1415.2 712.2 1417.5L697.8 1430.5 698.8 1407.1C699 1405.1 696.4 1402.4 694.4 1402.3 691.7 1401.6 689.8 1404.6 689.6 1406.6L688.7 1430.1 675.6 1415.7C673.8 1413.5 670.6 1413.6 669.2 1415.9 667 1417.7 667.1 1420.9 669.4 1422.3L689.1 1442.9 687.4 1474.3 643.4 1427.1C641.6 1424.9 638.4 1425 637 1427.3 634.9 1429.1 635 1432.3 637.2 1433.7L687.3 1487.8 685.2 1553.5 628.6 1518.3 611.7 1446.1C611.1 1443.6 608.9 1442.2 606.4 1442.8 604 1443.4 602.6 1445.6 603.1 1448.1L618 1511.8 590.8 1494.9 584.5 1467.9C584 1465.5 581.7 1464.1 579.3 1464.6 576.8 1465.2 575.4 1467.5 576 1469.9L580.3 1488.3 559.1 1475.2C557.3 1473 554.4 1474.3 553 1476.6 551.6 1478.8 552.2 1481.3 554.4 1482.7L574.1 1494.9 555.7 1499.2C553.2 1499.8 551.8 1502 552.4 1504.5S555.2 1508.3 557.7 1507.8L584.6 1501.5 611.8 1518.4 548.1 1533.2C545.7 1533.8 544.3 1536.1 544.9 1538.5 545.4 1541 547.7 1542.4 550.1 1541.8L622.4 1524.9 678.2 1559.7 620.3 1590.6 551.5 1569.9C548.8 1569.2 546.6 1571 545.2 1573.3 544.6 1576 546.4 1578.2 548.6 1579.6L610.4 1598.1 582.3 1613 555.1 1604.5C552.4 1603.9 550.2 1605.7 548.8 1607.9 548.2 1610.7 550 1612.8 551.5 1613.8L570.1 1619.1 549.5 1630.4C547.8 1631.4 546 1634.4 547.8 1636.6 549.5 1638.8 551.8 1640.2 554 1638.4L574.6 1627.1 569.3 1645.8C568.6 1648.5 570.4 1650.7 571.9 1651.6 573.9 1651.8 576.3 1651.2 577.3 1649.7 577.3 1649.7 577.7 1648.9 577.7 1648.9L586.3 1621.8 614.4 1606.8 595.9 1668.6C595.2 1671.3 597 1673.5 598.5 1674.4 600.5 1674.6 603 1674 603.9 1672.5 603.9 1672.5 604.4 1671.8 604.4 1671.8L625.3 1601.1 683.3 1570.1 681.2 1635.8 627 1685.9C624.9 1687.6 625 1690.9 627.2 1692.3 629 1694.4 632.2 1694.3 633.6 1692.1L680.8 1648.1 679.9 1680 659.3 1699.6C657.1 1701.4 657.2 1704.6 659.5 1706 661.3 1708.2 664.5 1708.1 665.9 1705.8L680.3 1692.8 679.3 1716.2C679.1 1718.2 681.7 1720.9 683.6 1721 685.6 1721.2 687.3 1720.2 688.3 1718.7 688.7 1717.9 689.2 1717.2 688.9 1715.9L689.9 1692.5 702.9 1706.9C704.7 1709 707.9 1708.9 709.3 1706.7 709.3 1706.7 709.8 1705.9 709.8 1705.9 710.7 1704.4 710.2 1701.9 709.1 1700.2L689.5 1679.7 690.4 1647.8 734.4 1695C736.2 1697.2 739.4 1697.1 740.8 1694.8 740.8 1694.8 741.2 1694 741.2 1694 742.2 1692.5 741.6 1690.1 740.6 1688.4L690.5 1634.2 692.6 1568.6 748.5 1603.3 765.3 1675.5C765.9 1678 768.2 1679.4 770.6 1678.8 773 1678.2 774.5 1676 773.9 1673.5L759.8 1610.3 787 1627.2 793.2 1654.1C793.8 1656.6 796.1 1658 798.5 1657.4S802.4 1654.6 801.8 1652.1L797.5 1633.8 817.2 1646C819.4 1647.4 821.9 1646.8 823.3 1644.6 824.7 1642.3 824.1 1639.8 821.8 1638.4L802.2 1626.2 820.6 1622C821.8 1621.7 823 1621.4 824 1619.9S824.6 1617.1 824.3 1615.9C823.8 1613.5 821.5 1612.1 819.1 1612.6L792.1 1618.9 764.9 1602 828.6 1587.2C829.8 1586.9 831 1586.6 832 1585.1 832.5 1584.3 832.6 1582.3 832.4 1581.1 831.8 1578.7 829.5 1577.3 827.1 1577.8L754.8 1594.7 699 1560 756.9 1529 827.7 1549.9C829.6 1550.1 832.1 1549.6 833 1548 833 1548 833.5 1547.3 833.5 1547.3 834.1 1544.6 832.3 1542.4 830.8 1541.5L769.1 1523 797.2 1508 824.4 1516.5C826.3 1516.7 828.8 1516.1 829.7 1514.6 829.7 1514.6 830.2 1513.9 830.2 1513.9 830.9 1511.1 829.1 1509 827.5 1508L808.9 1502.7 829.5 1491.4C830 1490.7 831.2 1490.4 831.6 1489.6 832.6 1488.1 832.8 1486.1 831.7 1484.5 829.9 1482.3 827.7 1480.9 825.5 1482.7L804.9 1493.9 810.2 1475.3C810.9 1472.5 809.1 1470.4 807.6 1469.4 804.8 1468.8 802.7 1470.6 801.7 1472.1L793.2 1499.2 765.1 1514.2 783.6 1452.4C784.2 1449.7 782.5 1447.5 780.9 1446.6 777.3 1447.5 774.4 1448.8 773.7 1451.5Z" fill="rgba(51, 121, 194, 0.58)"></path><path d="M1228.9 1855.9L1227.3 1824.8 1244.4 1832.6C1246.1 1833.6 1248.8 1832.8 1250.5 1830.6 1251 1828.2 1250.2 1825.4 1247.8 1825L1226.8 1814.5 1224.4 1790.3 1268.2 1812.3C1270.6 1812.8 1273.3 1812 1274.3 1810.3 1275.5 1807.3 1274.8 1804.6 1272.3 1804.1L1223.9 1780 1221.4 1743 1257.3 1766 1249.5 1724.1 1282.8 1740.2 1287 1794.2C1286.3 1794.7 1286.8 1795.4 1287.3 1796.2 1288.3 1797.6 1290 1798.6 1292 1798.4 1294 1798.1 1295.7 1795.9 1296.2 1793.4L1292.2 1744.6 1313.7 1755.8 1315.6 1779.2C1315.3 1780.5 1315.8 1781.2 1316.3 1782 1316.8 1782.7 1318.6 1783.7 1320.5 1783.4 1322.5 1783.2 1324.2 1780.9 1323.9 1779L1323.1 1760.2 1351.3 1773.4C1353.5 1775.1 1355.7 1773.6 1357.4 1771.4 1358.4 1769.7 1357.7 1766.9 1354.7 1765.7L1327.3 1752.1 1342.7 1741.6C1344.9 1740.1 1344.9 1736.9 1343.9 1735.5 1342.4 1733.3 1340 1732.8 1337.8 1734.3L1317.9 1747.7 1296.4 1736.5 1336.2 1709.6C1338.4 1708.1 1338.9 1705.7 1337.4 1703.4 1336.4 1702 1333.4 1700.8 1331.2 1702.2L1287 1732.1 1253.6 1716 1290.7 1696.3 1251.2 1682.2 1282.2 1661.3 1330.1 1684.7C1333.1 1686 1335.3 1684.5 1336.3 1682.7 1337.2 1681 1336.5 1678.3 1334.3 1676.6L1290.3 1655.9 1310.2 1642.4 1331.9 1652.4C1334.1 1654.2 1336.9 1653.4 1338.1 1650.4 1339 1648.7 1338.3 1646 1335.3 1644.8L1319 1636.5 1344.8 1619.1C1347 1617.6 1347.5 1615.1 1346 1612.9S1342 1610.2 1339.8 1611.7L1314 1629.1 1312.5 1610.9C1312.5 1607.7 1310.2 1606 1308.3 1606.2 1305 1606.2 1303.3 1608.5 1304.1 1611.2L1305.2 1635.1 1285.3 1648.5 1282.6 1599.9C1281.8 1597.2 1279.6 1595.5 1277.6 1595.8 1274.4 1595.8 1272.7 1598 1273.5 1600.7L1277.2 1654 1246.2 1674.8 1248 1632.9 1215.8 1660 1213.4 1623 1257.6 1593.2C1259.9 1591.7 1259.8 1588.5 1258.8 1587 1257.4 1584.8 1254.9 1584.3 1252.7 1585.8L1212.1 1613.1 1210.5 1588.5 1230.4 1575.1C1232.6 1573.6 1233.1 1571.1 1231.6 1568.9 1230.6 1567.4 1227.7 1566.2 1225.5 1567.7L1210 1578.1 1207.6 1547.6C1207.6 1544.4 1205.4 1542.7 1202.7 1543.4 1200.7 1543.7 1198.5 1545.2 1199.2 1547.9L1200.9 1578.9 1183.8 1571.1C1182.1 1570.1 1179.4 1570.9 1178.4 1572.6 1177.4 1574.4 1177.7 1576.3 1178.2 1577.1 1178.7 1577.8 1179.2 1578.5 1180.4 1578.8L1201.4 1589.3 1203.8 1613.4 1160 1591.5C1157.5 1591 1154.8 1591.7 1153.9 1593.5 1152.9 1595.2 1153.1 1597.2 1154.1 1598.6 1154.6 1599.4 1154.6 1599.4 1155.9 1599.6L1204.3 1623.8 1206.7 1660.7 1170.9 1637.8 1178.7 1679.6 1145.3 1663.5 1141.1 1609.6C1140.9 1607.6 1139.4 1605.4 1136.2 1605.4 1134.2 1605.6 1132.5 1607.9 1132 1610.3L1136 1659.1 1114.4 1647.9 1112.6 1624.5C1113.1 1622 1110.9 1620.3 1107.6 1620.3 1105.7 1620.6 1104 1622.8 1103.5 1625.3L1105.1 1643.5 1076.9 1630.4C1074.7 1628.6 1072.4 1630.1 1070.7 1632.4 1070.5 1633.6 1070.7 1635.6 1071.2 1636.3 1071.7 1637 1072.2 1637.8 1073.5 1638L1100.9 1651.7 1085.4 1662.1C1083.2 1663.6 1083.2 1666.8 1084.2 1668.3L1084.2 1668.3C1085.7 1670.5 1088.2 1671 1090.4 1669.5L1110.3 1656.1 1131.8 1667.3 1092 1694.1C1089.8 1695.6 1089.3 1698.1 1090.8 1700.3S1094.8 1703 1097 1701.5L1141.2 1671.7 1174.6 1687.8 1137.4 1707.5 1177 1721.5 1146 1742.4 1098.1 1719C1095.1 1717.8 1092.9 1719.3 1091.9 1721 1090.9 1722.7 1091.7 1725.4 1093.9 1727.2L1137.2 1748.4 1118 1761.3 1096.3 1751.3C1094 1749.6 1091.3 1750.3 1090.1 1753.3 1089.1 1755 1089.9 1757.7 1092.1 1759.5L1109.2 1767.3 1083.4 1784.7C1081.1 1786.1 1080.7 1788.6 1082.2 1790.8S1086.1 1793.5 1088.3 1792L1114.1 1774.6 1115.7 1792.9C1115.5 1794.1 1116 1794.8 1116.5 1795.6 1117.4 1797 1118.7 1797.3 1119.9 1797.5 1123.1 1797.5 1124.8 1795.3 1124.1 1792.6L1123 1768.7 1142.9 1755.3 1145.6 1803.8C1146.1 1804.5 1146.6 1805.3 1147.1 1806 1148.1 1807.5 1149.3 1807.7 1150.5 1808 1153.7 1808 1155.5 1805.7 1154.7 1803L1151 1749.8 1181.9 1728.9 1180.2 1770.8 1212.3 1743.8 1214.7 1780.8 1170.5 1810.6C1168.3 1812.1 1168.3 1815.3 1169.3 1816.7 1170.8 1819 1173.3 1819.4 1175.5 1817.9L1215.3 1791.1 1217.6 1815.3 1197.7 1828.7C1195.5 1830.2 1195 1832.6 1196.5 1834.8S1200.5 1837.5 1202.7 1836L1218.2 1825.6 1220.6 1856.2C1220.3 1857.4 1220.8 1858.1 1221.3 1858.9 1221.8 1859.6 1223.5 1860.6 1225.5 1860.3 1227.5 1860.1 1229.7 1858.6 1228.9 1855.9ZM1189.7 1751.6L1191.2 1717.3 1158.9 1705.9 1189.6 1689.4 1183.3 1656.2 1212.5 1674 1238.5 1652.2 1236.9 1686.5 1269.3 1697.9 1239.3 1713.8 1244.9 1747.6 1216.4 1729.2 1189.7 1751.6Z" fill="rgba(51, 121, 194, 0.58)"></path><path d="M224.3 2073.6L226.3 2050.3 238.1 2057.9C239.3 2058.8 241.4 2058.5 242.9 2057 243.5 2055.2 243.2 2053.1 241.5 2052.5L226.9 2042.6 227.7 2024.4 257.9 2045.2C259.7 2045.8 261.8 2045.6 262.7 2044.4 263.9 2042.3 263.6 2040.2 261.8 2039.6L228.3 2016.6 230.4 1988.9 254.6 2009.7 253.1 1977.8 276.3 1993.2 273.8 2033.7C273.2 2034 273.5 2034.6 273.8 2035.2 274.4 2036.4 275.6 2037.3 277.1 2037.3 278.6 2037.4 280.1 2035.9 280.7 2034.1L282.8 1997.4 297.6 2008 296.5 2025.6C296.2 2026.5 296.5 2027.1 296.8 2027.7 297.1 2028.3 298.3 2029.2 299.8 2029.2 301.3 2029.2 302.8 2027.7 302.8 2026.2L304.1 2012.2 323.7 2024.9C325.2 2026.4 327 2025.5 328.5 2024.1 329.4 2022.9 329.1 2020.8 327 2019.6L308 2006.6 320.6 2000.4C322.4 1999.6 322.7 1997.2 322.1 1996 321.3 1994.2 319.5 1993.6 317.7 1994.5L301.5 2002.4 286.7 1991.8 319 1976C320.8 1975.1 321.4 1973.3 320.6 1971.5 320 1970.3 317.9 1969.1 316.1 1970L280.2 1987.6 257.1 1972.2 286.7 1961.4 258.8 1946.8 283.9 1934.5 317.1 1956.9C319.2 1958.1 321 1957.2 321.9 1956 322.8 1954.8 322.5 1952.8 321 1951.3L290.5 1931.3 306.7 1923.4 321.8 1933.1C323.3 1934.6 325.4 1934.3 326.6 1932.2 327.5 1931 327.2 1928.9 325.1 1927.7L313.9 1919.9 334.8 1909.6C336.6 1908.8 337.2 1907 336.3 1905.2S333.7 1902.8 331.9 1903.6L310.9 1913.9 311.6 1900.2C312 1897.8 310.5 1896.3 309 1896.3 306.6 1896 305.1 1897.4 305.4 1899.5L303.7 1917.4 287.6 1925.3 290.6 1889C290.3 1886.9 288.8 1885.4 287.3 1885.4 284.9 1885 283.4 1886.5 283.7 1888.6L281 1928.5 255.8 1940.9 261.5 1909.9 234.8 1926.7 236.8 1898.9 272.7 1881.4C274.5 1880.5 274.9 1878.1 274.3 1876.9 273.4 1875.1 271.6 1874.5 269.8 1875.4L236.9 1891.5 238.2 1873 254.4 1865.1C256.2 1864.2 256.8 1862.4 255.9 1860.6 255.3 1859.5 253.3 1858.2 251.5 1859.1L238.9 1865.3 240.3 1842.3C240.6 1839.9 239.1 1838.4 237 1838.7 235.6 1838.7 233.8 1839.6 234 1841.7L232 1864.9 220.2 1857.4C219 1856.5 216.9 1856.7 216 1857.9 215.1 1859.1 215.1 1860.6 215.4 1861.2 215.7 1861.8 216 1862.4 216.9 1862.7L231.4 1872.7 230.6 1890.8 200.4 1870C198.6 1869.4 196.5 1869.7 195.6 1870.9 194.7 1872 194.7 1873.5 195.3 1874.7 195.6 1875.3 195.6 1875.3 196.5 1875.6L230 1898.6 227.9 1926.3 203.7 1905.5 205.2 1937.4 182.1 1922 184.5 1881.5C184.5 1880 183.6 1878.2 181.2 1877.9 179.8 1877.9 178.3 1879.4 177.6 1881.1L175.5 1917.8 160.7 1907.2 161.8 1889.6C162.4 1887.9 160.9 1886.4 158.5 1886 157 1886 155.5 1887.5 154.9 1889.3L154.2 1903 134.6 1890.3C133.1 1888.8 131.4 1889.7 129.8 1891.2 129.5 1892.1 129.5 1893.5 129.8 1894.1 130.1 1894.7 130.4 1895.3 131.3 1895.6L150.3 1908.6 137.7 1914.8C135.9 1915.7 135.6 1918 136.2 1919.2L136.2 1919.2C137 1921 138.8 1921.7 140.6 1920.8L156.8 1912.9 171.6 1923.4 139.3 1939.2C137.5 1940.1 136.9 1941.9 137.7 1943.7S140.4 1946.1 142.2 1945.2L178.1 1927.7 201.3 1943.1 171.6 1953.8 199.5 1968.4 174.4 1980.7 141.2 1958.3C139.1 1957.1 137.3 1958 136.4 1959.2 135.5 1960.4 135.8 1962.5 137.3 1964L167.2 1984.2 151.6 1991.8 136.5 1982.2C135 1980.7 132.9 1980.9 131.7 1983 130.8 1984.2 131.1 1986.3 132.6 1987.8L144.5 1995.3 123.5 2005.6C121.7 2006.5 121.1 2008.3 122 2010.1S124.6 2012.5 126.4 2011.6L147.4 2001.3 146.7 2015C146.4 2015.9 146.7 2016.5 146.9 2017.1 147.5 2018.3 148.4 2018.6 149.3 2018.9 151.7 2019.3 153.2 2017.8 152.9 2015.7L154.6 1997.8 170.7 1989.9 167.7 2026.3C168 2026.9 168.3 2027.5 168.6 2028.1 169.2 2029.2 170.1 2029.6 171 2029.9 173.4 2030.2 174.9 2028.7 174.6 2026.6L177.3 1986.7 202.5 1974.4 196.8 2005.3 223.5 1988.6 221.5 2016.3 185.6 2033.9C183.8 2034.7 183.4 2037.1 184 2038.3 184.9 2040.1 186.7 2040.7 188.5 2039.9L220.8 2024 220.1 2042.2 203.9 2050.1C202.1 2051 201.5 2052.8 202.4 2054.6S205 2057 206.8 2056.1L219.4 2050 218 2072.9C217.7 2073.8 218 2074.4 218.3 2075 218.6 2075.6 219.8 2076.5 221.3 2076.5 222.8 2076.5 224.6 2075.6 224.3 2073.6ZM205.9 1992L210.6 1966.7 187.7 1954.9 212.3 1945.8 211 1920.5 230.8 1936.8 252.4 1923.2 247.7 1948.5 270.6 1960.4 246.6 1969.1 247.3 1994.7 228.1 1978.2 205.9 1992Z" fill="rgba(51, 121, 194, 0.58)"></path><path d="M921.4 631.7L929 645.3 919.6 645.6C918.6 645.5 917.6 646.4 917.3 647.8 917.6 649 918.6 650.1 919.8 649.7L931.5 649.8 937.9 660.2 913.4 659.9C912.2 660.3 911.1 661.2 911.1 662.2 911.2 663.8 912.1 664.8 913.3 664.5L940.4 664.7 949.6 680.8 928.4 678.3 941.2 695.4 922.7 695.5 908.9 672.2C909.1 671.8 908.7 671.6 908.3 671.4 907.6 670.9 906.6 670.9 905.8 671.4 904.9 672 904.6 673.4 905 674.6L917.5 695.6 905.4 695.3 899.4 685.2C899.2 684.6 898.8 684.4 898.4 684.1 898.1 683.9 897.1 683.9 896.2 684.4 895.4 685 895.1 686.3 895.7 687.2L900.2 695.4 884.6 695.7C883.3 695.4 882.6 696.6 882.3 697.9 882.2 698.9 883.2 700 884.8 699.9L900.1 700 895.5 708.1C894.8 709.2 895.5 710.6 896.3 711.1 897.4 711.8 898.6 711.4 899.3 710.3L905.3 699.9 917.4 700.2 905.4 721C904.8 722.1 905.1 723.4 906.3 724 907 724.5 908.6 724.4 909.3 723.2L922.6 700.1 941.1 700 928.8 717 949.6 714.6 940.3 730.8 913.6 730.8C912 730.9 911.4 732.1 911.3 733.1 911.3 734.1 912.2 735.1 913.6 735.4L937.9 735 931.9 745.4 919.9 745.7C918.6 745.4 917.5 746.4 917.6 748 917.6 749 918.5 750 920.1 749.9L929.2 750 921.5 763.5C920.8 764.7 921.1 765.9 922.3 766.6S924.7 766.9 925.3 765.7L933.1 752.3 937.8 760.1C938.5 761.5 939.9 761.8 940.7 761.3 942.2 760.6 942.4 759.2 941.5 758.1L935.7 747.6 941.7 737.2 953.6 758.4C954.6 759.5 955.9 759.8 956.8 759.2 958.2 758.5 958.5 757.1 957.6 756.1L944.2 733 953.5 716.8 961.9 736 970.4 716.8 979.6 732.9 966.3 756C965.7 757.2 966.4 758.6 967.1 759 968.3 759.7 969.5 759.4 970.2 758.2L982.4 737 988.5 747.7 982.5 758.1C981.9 759.3 982.2 760.5 983.3 761.2 984.1 761.6 985.7 761.5 986.4 760.4L991 752.3 998.8 765.5C999.5 766.9 1000.9 767.2 1002 766.2 1002.8 765.7 1003.4 764.5 1002.5 763.5L994.9 749.9 1004.3 749.7C1005.3 749.7 1006.4 748.8 1006.4 747.8 1006.5 746.8 1005.9 746 1005.5 745.7 1005.2 745.5 1004.8 745.3 1004.2 745.5L992.4 745.4 986.1 735.1 1010.5 735.3C1011.7 735 1012.8 734 1012.9 733 1012.9 732 1012.4 731.2 1011.6 730.8 1011.2 730.5 1011.2 730.5 1010.6 730.7L983.5 730.5 974.3 714.5 995.5 716.9 982.7 699.8 1001.3 699.7 1015 723C1015.6 723.8 1016.7 724.5 1018.2 723.8 1019 723.2 1019.3 721.9 1019 720.6L1006.4 699.6 1018.6 699.9 1024.6 710C1024.9 711.2 1026.3 711.5 1027.7 710.8 1028.5 710.3 1028.8 708.9 1028.5 707.7L1023.8 699.8 1039.3 699.5C1040.7 699.8 1041.3 698.7 1041.6 697.3 1041.5 696.7 1040.9 695.8 1040.5 695.6 1040.1 695.4 1039.8 695.2 1039.2 695.3L1023.8 695.2 1028.5 687.2C1029.1 686 1028.4 684.6 1027.7 684.1L1027.7 684.1C1026.5 683.5 1025.3 683.8 1024.6 684.9L1018.6 695.3 1006.5 695 1018.5 674.2C1019.1 673.1 1018.8 671.9 1017.7 671.2S1015.3 670.9 1014.6 672L1001.3 695.1 982.8 695.2 995.2 678.2 974.3 680.6 983.6 664.4 1010.3 664.4C1011.9 664.3 1012.6 663.1 1012.6 662.1 1012.7 661.1 1011.7 660.1 1010.4 659.8L986.3 659.8 992 649.8 1004 649.5C1005.4 649.8 1006.4 648.8 1006.3 647.2 1006.4 646.2 1005.4 645.2 1004.1 644.9L994.7 645.2 1002.5 631.7C1003.1 630.5 1002.8 629.3 1001.6 628.6S999.3 628.3 998.6 629.5L990.8 642.9 986.1 635.1C986 634.5 985.6 634.3 985.2 634.1 984.4 633.6 983.8 633.8 983.2 633.9 981.8 634.7 981.5 636 982.4 637.1L988.2 647.6 982.2 658 970.3 636.8C969.9 636.5 969.5 636.3 969.1 636.1 968.4 635.7 967.8 635.8 967.2 636 965.7 636.7 965.4 638.1 966.4 639.1L979.8 662.2 970.5 678.4 962 659.2 953.5 678.4 944.3 662.3 957.6 639.2C958.3 638.1 957.6 636.6 956.8 636.2 955.6 635.5 954.4 635.8 953.8 637L941.8 657.8 935.4 647.5 941.4 637.1C942.1 635.9 941.8 634.7 940.6 634S938.2 633.7 937.6 634.9L932.9 642.9 925.1 629.7C925 629.1 924.6 628.9 924.2 628.7 923.8 628.5 922.8 628.4 922 629 921.1 629.5 920.5 630.7 921.4 631.7ZM962 669.9L968.8 685.7 985.9 683.7 975.7 697.8 985.9 711.3 968.8 709.8 961.9 725.3 955.1 709.5 938.1 711.5 948 697.8 938.1 683.9 954.9 685.8 962 669.9Z" fill="rgba(51, 121, 194, 0.58)"></path><path d="M979.8 1368.2L945.2 1325.3 946.5 1310.1 977.5 1296.2 990.3 1305.1 998.7 1359.8C998.9 1360.4 998.9 1360.4 999.2 1361 999.8 1362.2 1000.9 1363.2 1003 1362.9 1004.8 1362.1 1005.8 1361 1005.6 1358.9L998.1 1311.1 1017.5 1325.1 1021 1346.1C1021 1346.1 1021.3 1346.7 1021.3 1346.7 1021.9 1347.9 1023 1348.9 1025.1 1348.7 1026.6 1348.7 1027.9 1346.7 1027.7 1344.6L1025.9 1330.8 1040 1341.3C1041.2 1342.2 1043.3 1342 1044.8 1340.6S1045.3 1336.7 1043.9 1335.2L1030 1325.3 1043.5 1322.9C1045.6 1322.7 1046.9 1320.7 1046.7 1318.6 1046.1 1317.3 1044.7 1315.8 1042.6 1316L1021.6 1319.6 1001.9 1305 1049.7 1297.5C1051.8 1297.3 1053.1 1295.3 1053.1 1293.8 1052.3 1291.9 1050.9 1290.4 1048.8 1290.6L994.4 1299.6 981.4 1290.1 984.9 1257.1 999.5 1250.6 1051.2 1269.8C1052.9 1270.5 1054.7 1269.7 1055.4 1267.9S1055.3 1264.3 1053.5 1263.7L1008 1246.8 1030.5 1236.7 1049.9 1244.1C1051.6 1244.8 1053.5 1244 1054.7 1241.9S1054.6 1238.3 1052.8 1237.7L1039 1232.9 1055.4 1225.5C1057.3 1224.7 1057.7 1222.4 1056.9 1220.5 1056 1218.7 1054.3 1218 1052.5 1218.8L1036 1226.2 1041.1 1213C1042.3 1211 1041.5 1209.1 1039.2 1208.7 1037.4 1208.1 1035.6 1208.9 1034.9 1210.6L1027.5 1230 1005 1240.1 1022.7 1194.9C1023.4 1193.1 1022.3 1190.7 1020.6 1190S1017 1190.2 1016.3 1191.9L996.5 1243.9 981.9 1250.4 954.7 1230.5 956.5 1215 999.5 1180.5C1001 1179 1000.8 1176.9 1000 1175.1 998.6 1173.6 996.5 1173.8 994.7 1174.6L957.2 1205.2 959.8 1181.4 976.4 1168.1C978 1166.7 977.8 1164.6 977 1162.8 975.8 1161.8 973.4 1161.4 971.9 1162.9L961.1 1171.4 962.7 1153.8C962.8 1152.3 961.4 1150.8 959.6 1150.1 957.5 1150.3 956 1151.7 955.9 1153.2L954.2 1170.8 944.9 1159.6C943.7 1158.7 941.4 1158.3 940.4 1159.4 938.6 1160.2 938.5 1161.7 939.3 1163.6 939.3 1163.6 939.6 1164.2 939.6 1164.2L952.9 1180.9 950.4 1204.6 919.8 1167.2C918.4 1165.6 916.6 1165 915 1166.4 913.5 1167.8 913.4 1169.3 914 1170.5 914.2 1171.1 914.2 1171.1 914.2 1171.1L949.7 1214.4 947.8 1229.9 916.8 1243.8 904.7 1234.6 895.4 1179.6C895.4 1178.1 893.4 1176.8 891.9 1176.7 889.8 1177 888.5 1179 888.7 1181.1L896.2 1228.9 876.9 1214.9 873.3 1193.9C873.1 1191.8 871.6 1190.2 869.8 1191 867.7 1191.2 866.4 1193.3 866.4 1194.8L869.1 1208.9 854.9 1198.4C853.1 1197.8 851 1198 849.5 1199.4 849.1 1200.3 849.1 1201.8 849.6 1203 849.9 1203.6 849.9 1203.6 850.8 1203.9L864.9 1214.4 850.8 1217.1C848.7 1217.3 848 1219 848 1220.5 848.2 1221.1 848.2 1221.1 848.5 1221.7 849.1 1223 850.2 1223.9 851.7 1224L872.7 1220.4 892.1 1234.4 844.4 1241.9C842.5 1242.7 841 1244.1 841.8 1245.9 841.5 1246.8 841.5 1246.8 841.7 1247.4 842.3 1248.6 844 1249.3 845.5 1249.4L900.5 1240.1 912.7 1249.3 909.5 1282.8 895.5 1289.1 843.5 1269.3C841.7 1268.6 839.3 1269.7 838.6 1271.4S839 1275.6 840.8 1276.3L886.3 1293.2 864.4 1303 844.4 1295.9C842.7 1295.2 840.8 1296 840.2 1297.8 839.5 1299.5 840.3 1301.4 842.1 1302L855.3 1307.1 838.9 1314.4C837.6 1315 836.4 1317 837.2 1318.8 838 1320.7 840.6 1321.7 841.9 1321.1L858.3 1313.8 853.2 1327C852.9 1327.9 852.6 1328.7 852.8 1329.4 853.4 1330.6 854.3 1330.9 855.2 1331.2 856.9 1331.9 858.7 1331.1 859.4 1329.3L867.4 1309.7 889.3 1299.9 871.6 1345.1C871.2 1346 871.5 1346.6 872.1 1347.8 872.3 1348.4 872.6 1349 873.5 1349.3 875.2 1350 877.7 1348.9 878.3 1347.2L898.5 1295.8 912.4 1289.5 939.4 1308.9 938.4 1324.7 894.8 1359.5C893.9 1360.7 893.2 1362.4 893.8 1363.6 894 1364.2 894 1364.2 894.6 1364 895.5 1365.8 897.8 1366.2 899.4 1364.8L936.8 1334.1 934.6 1358.5 917.9 1371.8C916.9 1373 916.9 1374.5 917.4 1375.7 917.4 1375.7 917.7 1376.3 917.7 1376.3 918.5 1378.1 920.9 1378.5 922.4 1377.1L933.6 1367.7 931.9 1385.3C931.6 1386.1 931.9 1386.8 932.1 1387.4 932.7 1388.6 933.8 1389.5 934.4 1389.3 936.8 1389.7 938.4 1388.2 939 1386.5L940.7 1368.9 949.2 1379.7C950.6 1381.3 953 1381.7 954.5 1380.3 955.5 1379.1 955.9 1376.7 954.7 1375.8L941.4 1359.1 943.9 1335.3 974.5 1372.8C976 1374.3 978.1 1374.1 979.9 1373.3 980.8 1372.1 981.2 1369.8 979.8 1368.2ZM970.9 1291.1L947.1 1301.8 943.5 1303.4 940.3 1301.2 919.8 1286.3 916.3 1283.4 916.8 1279.6 919.3 1254.3 919.8 1250.5 923.4 1248.8 947.2 1238.2 950.8 1236.6 954 1238.8 974.6 1253.7 977.8 1255.9 977.6 1260.4 975 1285.7 974.5 1289.5 970.9 1291.1Z" fill="rgba(51, 121, 194, 0.58)"></path><path d="M1348.5 532.1L1279.4 515.9 1266.1 493.7 1289.4 499.2C1291.8 500.4 1293.8 498.5 1295.1 496.2 1295.2 494.2 1293.7 491.3 1291.7 491.3L1259.7 483.1 1246.1 461.6 1271.6 461.2 1295.5 484.2C1295.5 484.2 1296.3 484.7 1296.3 484.7 1297.8 485.5 1300.2 484.8 1301.9 483.6 1303.1 481.3 1303.2 479.3 1301.3 477.3L1283.9 460.8 1309.4 460.4 1361.1 508.6C1361.1 508.6 1361.5 509.8 1361.5 509.8 1363.1 510.6 1365.5 509.9 1367.1 508.8 1369.1 506.9 1368.8 503.7 1366.5 502.4L1321.7 460 1352.8 458.6 1372.9 477.5C1372.9 477.5 1372.9 477.5 1373.6 478 1375.2 478.8 1377.2 478.9 1378.8 477.7 1380.1 475.4 1380.6 472.6 1378.6 470.6L1365.1 458.2 1387.8 457.3C1390.6 457.8 1391.8 455.5 1391.9 453.5 1392.4 450.7 1390.5 448.7 1387.3 449L1365 449.1 1377.7 436.7C1379 434.4 1379.5 431.6 1377.1 430.4 1375.2 428.3 1373.2 428.2 1371.2 430.2L1352.2 450.2 1321.6 450.9 1364.4 405.3C1366 404.1 1365.7 401 1363.8 398.9 1362.2 398.1 1359.5 397.6 1357.4 399.5L1309.3 451.3 1283.8 451.7 1300.2 434.3C1302.3 432.4 1301.6 429.9 1299.7 427.9 1298.5 426.3 1295.3 426.6 1293.7 427.7L1271.4 452.1 1245.6 453.2 1257.8 430.5 1289.1 421.2C1291.5 420.5 1292.8 418.1 1292.1 415.7 1292.1 413.7 1289 412 1286.6 412.8L1263.7 419.6 1276 396.9 1344.2 377.2C1346.6 376.5 1347.9 374.1 1347.2 371.7 1346.5 369.3 1344.1 368.1 1341.7 368.8L1281.9 386 1296.3 359.4 1322.8 351.5C1325.2 350.8 1326.4 348.4 1325.7 346 1325 343.6 1322.6 342.3 1320.2 343L1302.6 347.6 1313.2 328.1C1314.4 325.8 1313.7 323.3 1311.4 322.1 1309 320.8 1306.6 321.5 1305.3 323.9L1294.8 343.4 1289.7 326.6C1289 324.2 1286.7 322.9 1284.3 323.6S1280.6 326.7 1281.3 329.1L1288.9 354.4 1274.1 381.7 1256.5 322.7C1255.7 320.3 1253.4 319 1251 319.8 1248.6 320.5 1247.3 322.8 1248 325.2L1268.2 392.7 1255.9 415.4 1249.1 392.5C1248.4 390.1 1246 388.8 1243.6 389.5 1241.2 390.2 1239.9 392.6 1240.6 395L1250 426.3 1238.2 448.2 1225.3 427.1 1232.7 394.8C1232.8 392.8 1231.3 389.9 1229.3 389.9 1226.5 389.4 1224.9 390.5 1223.6 392.9L1218.1 416.2 1205.2 395.1 1221.3 326C1221.8 323.2 1220.7 321.6 1218.3 320.3 1215.6 319.8 1213.5 321.8 1212.7 323.3L1198 384.1 1182.2 357.4 1188.2 331.3C1189.4 329 1187.5 326.9 1185.2 325.6 1183.2 325.6 1180.3 327.1 1179.9 329.8L1175.7 346.8 1163.6 328.1C1162.9 325.7 1160.1 325.2 1157.3 326.7 1155.7 327.9 1155.2 330.6 1156.3 332.3L1168 351.7 1150.3 347.2C1147.5 346.7 1145.5 348.6 1145.4 350.6 1144.1 353 1145.3 354.6 1146.8 355.4 1147.6 355.9 1147.6 355.9 1148.4 356.3L1174.5 362.3 1190.3 389 1130.3 374.8C1128 373.5 1125.9 375.5 1124.7 377.8 1124.6 379.8 1125.7 381.4 1127.3 382.3 1128.1 382.7 1128.1 382.7 1128.1 382.7L1197.5 400 1210.4 421.1 1187.1 415.6C1184.3 415.1 1182.7 416.2 1181.4 418.6 1181.4 420.6 1182.1 423 1183.6 423.8 1184.4 424.2 1184.4 424.2 1185.2 424.7L1217.6 432.1 1230.4 453.1 1205.8 454 1181.4 431.7C1179.5 429.7 1176.3 430 1174.7 431.1 1173.4 433.4 1172.9 436.2 1175.3 437.5L1192.6 453.9 1167.5 455.5 1115.4 406.1C1114.3 404.5 1111.1 404.8 1109.4 406 1108.2 408.3 1107.7 411.1 1109.6 413.1L1154.4 455.5 1123.8 456.1 1104.5 437.6C1102.5 435.6 1099.3 435.9 1098.1 438.2 1096.5 439.4 1096 442.1 1097.9 444.2L1111.4 456.5 1088.7 457.4C1086.7 457.3 1084.7 459.3 1084.2 462 1084.6 463.2 1085.7 464.9 1087.3 465.7 1087.3 465.7 1088 466.1 1088.8 466.6L1111.5 465.7 1099.2 479.2C1097.5 480.4 1097.8 483.5 1099 485.2 1099.8 485.6 1099.8 485.6 1099.8 485.6 1102.1 486.9 1104.5 486.1 1105.4 484.6L1123.9 465.3 1154.9 463.9 1112.1 509.5C1110.9 511.8 1110.8 513.8 1112.7 515.8 1112.7 515.8 1113.5 516.3 1113.5 516.3 1115.1 517.1 1117.1 517.2 1119.1 515.2L1168.1 463.9 1192.7 463.1 1176.3 480.5C1175 482.8 1174.5 485.6 1176.9 486.8 1176.5 487.6 1177.2 488.1 1177.2 488.1 1178.8 488.9 1181.2 488.2 1182.8 487L1205.1 462.7 1230.6 462.3 1218.7 484.2 1187.4 493.5C1185 494.3 1183.3 497.4 1184 499.8 1185.2 501.4 1187.5 502.7 1189.5 502.8L1212.8 495.1 1200.6 517.8 1133.1 538C1130.7 538.7 1129.4 541 1130.1 543.4 1130.9 545.8 1133.2 547.1 1135.6 546.4L1194.6 528.8 1179.9 556.1 1154.6 563.7C1152.1 564.4 1150.9 566.8 1151.6 569.2S1154.7 572.8 1157.1 572.1L1173.9 567.1 1163.4 586.6C1162.1 589 1162.8 591.4 1165.2 592.7 1167.5 593.9 1169.9 593.2 1171.2 590.9L1181.8 571.3 1187.6 588.6C1187.9 589.8 1188.3 591 1189.1 591.4 1189.9 591.9 1191.8 591.9 1193 591.6 1195.5 590.8 1196.7 588.5 1196 586.1L1187.7 560.4 1202.5 533 1220.9 592.4C1221.2 593.6 1221.6 594.9 1222.4 595.3 1223.1 595.7 1225.1 595.8 1226.3 595.4 1228.7 594.7 1230 592.3 1229.3 589.9L1208.4 522 1220.6 499.4 1227 523C1227.4 524.2 1229 525.1 1229.7 525.5 1230.5 525.9 1231.3 526.4 1232.5 526 1234.9 525.3 1236.6 522.1 1235.5 520.5L1226.5 488.4 1238.4 466.5 1252 488 1243.8 520C1243.8 522 1244.5 524.4 1246.1 525.2 1246.8 525.7 1246.8 525.7 1247.3 524.9 1249.6 526.1 1252.4 524.6 1252.9 521.9L1258.4 498.6 1272.1 520.1 1254.8 589.5C1254.7 591.5 1255.8 593.2 1257.4 594 1258.2 594.4 1258.2 594.4 1258.2 594.4 1261 594.9 1263.4 594.2 1263.8 591.4L1278.5 530.6 1294.4 557.4 1288.4 583.4C1287.9 586.2 1289 587.8 1290.6 588.7 1290.6 588.7 1291.4 589.1 1291.4 589.1 1294.1 589.6 1296.2 587.7 1297 586.1L1300.8 567.9 1312.5 587.4C1313.3 587.8 1314.1 588.2 1314.8 588.7 1315.6 589.1 1317.6 589.1 1318.8 588.8 1320.9 586.9 1322.1 584.5 1320.2 582.5L1308.5 563 1326.2 567.5C1329 568 1331.1 566.1 1331.9 564.5 1332.4 561.8 1330.5 559.7 1328.1 558.5L1302.1 552.5 1285.8 526.5 1345.8 540.7C1348.6 541.2 1351.4 539.7 1351.5 537.7 1351.9 534.9 1351.2 532.5 1348.5 532.1Z" fill="rgba(51, 121, 194, 0.58)"></path><path d="M1285.5 1907L1316.1 1886.5 1326.1 1888.2 1333.5 1909.7 1326.8 1917.6 1290 1920C1289.6 1920.1 1289.6 1920.1 1289.2 1920.3 1288.4 1920.6 1287.7 1921.3 1287.7 1922.7 1288.1 1923.9 1288.8 1924.6 1290.2 1924.6L1322.4 1922.4 1312 1934.5 1297.8 1935.6C1297.8 1935.6 1297.4 1935.8 1297.4 1935.8 1296.6 1936.1 1295.9 1936.8 1295.9 1938.2 1295.7 1939.2 1297 1940.1 1298.4 1940.1L1307.7 1939.7 1299.9 1948.5C1299.2 1949.3 1299.2 1950.7 1300.1 1951.8S1302.6 1952.3 1303.7 1951.4L1311.1 1942.8 1311.9 1951.9C1311.9 1953.3 1313.2 1954.3 1314.6 1954.3 1315.4 1954 1316.6 1953.1 1316.5 1951.7L1315.4 1937.5 1326.2 1925.3 1328.4 1957.5C1328.4 1958.9 1329.7 1959.9 1330.7 1960 1332 1959.6 1333.1 1958.7 1333 1957.3L1330.3 1920.7 1337.3 1912.6 1359 1916.8 1362.5 1926.9 1346.7 1960.1C1346.2 1961.2 1346.6 1962.5 1347.7 1963S1350.1 1963.2 1350.7 1962L1364.5 1932.8 1369.9 1948.3 1363.9 1960.8C1363.3 1961.9 1363.8 1963.2 1365 1964.1S1367.4 1964.2 1368 1963.1L1371.9 1954.2 1375.9 1965.5C1376.3 1966.8 1377.9 1967.2 1379.1 1966.8 1380.4 1966.3 1380.9 1965.2 1380.5 1964L1376.6 1952.6 1385 1956.7C1386.3 1957.7 1387.6 1957.3 1388 1955.7 1388.5 1954.6 1388.1 1953.3 1387 1952.8L1374.5 1946.7 1369.2 1931.2 1398.1 1945.6C1399.3 1946.2 1400.9 1945.6 1401.5 1944.5S1401.6 1942.1 1400.5 1941.5L1367.1 1925.3 1363.6 1915.2 1378.5 1898.3 1388.6 1900.5 1409.1 1931C1409.9 1932.1 1411.3 1932.1 1412.6 1931.7 1413.7 1930.8 1413.7 1929.4 1413.3 1928.2L1395.1 1901.5 1410.8 1904.6 1418.6 1916.4C1419.5 1917.6 1420.9 1917.5 1422.1 1917.1 1422.8 1916.4 1423.2 1914.8 1422.4 1913.7L1417.4 1906.1 1428.9 1908.2C1429.9 1908.3 1431 1907.5 1431.6 1906.3 1431.6 1904.9 1430.7 1903.8 1429.7 1903.7L1418.2 1901.5 1426.1 1896C1426.8 1895.3 1427.2 1893.7 1426.5 1893 1426.1 1891.8 1425.1 1891.6 1423.8 1892.1 1423.8 1892.1 1423.4 1892.2 1423.4 1892.2L1411.5 1900.1 1395.9 1897 1422.6 1878.9C1423.7 1878 1424.2 1876.9 1423.4 1875.8 1422.5 1874.7 1421.5 1874.5 1420.7 1874.8 1420.3 1875 1420.3 1875 1420.3 1875L1389.4 1896 1379.3 1893.8 1371.9 1872.4 1378.7 1864.9 1415.8 1861.9C1416.7 1862.1 1417.7 1860.8 1417.8 1859.8 1417.8 1858.4 1416.6 1857.4 1415.2 1857.4L1383 1859.6 1393.4 1847.6 1407.6 1846.4C1409 1846.4 1410.1 1845.6 1409.7 1844.3 1409.6 1842.9 1408.4 1841.9 1407.4 1841.8L1397.8 1842.7 1405.6 1833.9C1406.2 1832.8 1406.1 1831.4 1405.3 1830.3 1404.7 1830 1403.7 1829.9 1402.9 1830.2 1402.5 1830.3 1402.5 1830.3 1402.2 1830.9L1394.4 1839.7 1393.5 1830.1C1393.5 1828.7 1392.3 1828.2 1391.4 1828.1 1390.9 1828.2 1390.9 1828.2 1390.5 1828.3 1389.7 1828.6 1389 1829.3 1388.8 1830.3L1390 1844.5 1379.6 1856.6 1377.4 1824.4C1377 1823.2 1376.1 1822 1374.8 1822.5 1374.3 1822.2 1374.3 1822.2 1373.9 1822.3 1373 1822.6 1372.5 1823.8 1372.3 1824.8L1375.3 1861.8 1368.5 1869.4 1346.4 1865.2 1343 1855.6 1359.2 1822.2C1359.8 1821.1 1359.2 1819.4 1358.1 1818.9S1355.3 1818.9 1354.7 1820L1340.8 1849.3 1335.6 1834.2 1341.5 1821.3C1342.1 1820.2 1341.6 1818.9 1340.5 1818.4 1339.4 1817.8 1338.1 1818.2 1337.6 1819.4L1333.4 1827.9 1329.5 1816.5C1329.2 1815.7 1328 1814.7 1326.7 1815.1 1325.4 1815.6 1324.6 1817.3 1324.9 1818.1L1328.8 1829.5 1320.3 1825.3C1319.8 1825.1 1319.2 1824.8 1318.8 1824.9 1318 1825.2 1317.7 1825.8 1317.4 1826.3 1316.9 1827.5 1317.3 1828.7 1318.4 1829.3L1331 1835.8 1336.2 1850.9 1307.3 1836.4C1306.7 1836.2 1306.3 1836.3 1305.4 1836.6 1305 1836.7 1304.6 1836.9 1304.3 1837.5 1303.8 1838.6 1304.3 1840.3 1305.5 1840.8L1338.4 1857.2 1341.7 1866.8 1327.3 1883.6 1316.9 1882 1296.3 1851C1295.6 1850.3 1294.5 1849.8 1293.6 1850.1 1293.2 1850.2 1293.2 1850.2 1293.4 1850.6 1292.1 1851.1 1291.7 1852.6 1292.5 1853.7L1310.7 1880.4 1294.6 1877.5 1286.8 1865.6C1286.1 1864.9 1285.1 1864.8 1284.2 1865.1 1284.2 1865.1 1283.8 1865.2 1283.8 1865.2 1282.6 1865.7 1282.2 1867.2 1283 1868.3L1288.6 1876.3 1277 1874.2C1276.5 1873.9 1276 1874 1275.6 1874.2 1274.8 1874.5 1274.1 1875.2 1274.2 1875.6 1273.8 1877.1 1274.7 1878.3 1275.8 1878.8L1287.4 1880.9 1279.7 1885.9C1278.6 1886.8 1278.2 1888.3 1279 1889.5 1279.7 1890.2 1281.3 1890.6 1282 1889.8L1293.8 1882 1309.5 1885 1282.8 1903.2C1281.7 1904 1281.7 1905.5 1282.2 1906.7 1282.9 1907.4 1284.4 1907.8 1285.5 1907ZM1337.3 1905.5L1331.6 1889.2 1330.7 1886.6 1332.4 1884.7 1343.5 1871.9 1345.6 1869.7 1348.1 1870.3 1364.7 1873.5 1367.3 1874 1368.1 1876.5 1373.8 1892.9 1374.7 1895.4 1373 1897.4 1361.9 1910.2 1360.2 1912.2 1357.3 1911.8 1340.7 1908.6 1338.1 1908.1 1337.3 1905.5Z" fill="rgba(51, 121, 194, 0.58)"></path></g><defs><mask id="SvgjsMask1032"><rect width="1440" height="2000" fill="#ffffff"></rect></mask><filter id="SvgjsFilter1033"><feGaussianBlur stdDeviation="1"></feGaussianBlur></filter></defs></svg>